{"title":"Marlena_comp_#405_#426_#511_#536_720p.wmv","uid":10628887,"size":1290536617,"categoryP":"porn","categoryS":"hd___movies","magnet":"?xt=urn:btih:b3c9f23dc0afee3facb808e93fb4c2e9f84b1bed&amp;dn=Marlena_comp_%23405_%23426_%23511_%23536_720p.wmv&amp;tr=udp%3A%2F%2Ftracker.openbittorrent.com%3A80&amp;tr=udp%3A%2F%2Fopen.demonii.com%3A1337&amp;tr=udp%3A%2F%2Ftracker.coppersurfer.tk%3A6969&amp;tr=udp%3A%2F%2Fexodus.desync.com%3A6969","seeders":0,"leechers":1,"uploader":"nosak","files":1,"time":1406285883,"description":"\n\nGeneral\nComplete name                            :Marlena_comp_#405_#426_#511_#536_720p.wmv\nFormat                                   : Windows Media\nFile size                                : 1.20 GiB\nDuration                                 : 41mn 31s\nOverall bit rate mode                    : Constant\nOverall bit rate                         : 4 144 Kbps\nMaximum Overall bit rate                 : 4 162 Kbps\nEncoded date                             : UTC 2010-03-13 04:10:48.546\n\nVideo\nID                                       : 2\nFormat                                   : VC-1\nFormat profile                           : MP@HL\nCodec ID                                 : WMV3\nCodec ID/Info                            : Windows Media Video 9\nCodec ID/Hint                            : WMV3\nDescription of the codec                 : Windows Media Video 9 - Professional\nDuration                                 : 41mn 31s\nBit rate mode                            : Constant\nBit rate                                 : 4 000 Kbps\nWidth                                    : 1 280 pixels\nHeight                                   : 720 pixels\nDisplay aspect ratio                     : 16:9\nFrame rate                               : 29.970 fps\nColor space                              : YUV\nChroma subsampling                       : 4:2:0\nBit depth                                : 8 bits\nScan type                                : Progressive\nCompression mode                         : Lossy\nBits/(Pixel*Frame)                       : 0.145\nStream size                              : 1.16 GiB (97%)\nLanguage                                 : English (US)\n\nAudio\nID                                       : 1\nFormat                                   : WMA\nFormat version                           : Version 2\nCodec ID                                 : 161\nCodec ID/Info                            : Windows Media Audio\nDescription of the codec                 : Windows Media Audio 9.2 - 128 kbps, 44 kHz, stereo 1-pass CBR\nDuration                                 : 41mn 31s\nBit rate mode                            : Constant\nBit rate                                 : 128 Kbps\nChannel(s)                               : 2 channels\nSampling rate                            : 44.1 KHz\nBit depth                                : 16 bits\nStream size                              : 38.0 MiB (3%)\nLanguage                                 : English (US)\n\n","torrent":{"xt":"urn:btih:b3c9f23dc0afee3facb808e93fb4c2e9f84b1bed","amp;dn":"Marlena_comp_%23405_%23426_%23511_%23536_720p.wmv","amp;tr":["udp%3A%2F%2Ftracker.openbittorrent.com%3A80","udp%3A%2F%2Fopen.demonii.com%3A1337","udp%3A%2F%2Ftracker.coppersurfer.tk%3A6969","udp%3A%2F%2Fexodus.desync.com%3A6969"],"infoHash":"b3c9f23dc0afee3facb808e93fb4c2e9f84b1bed","infoHashBuffer":{"type":"Buffer","data":[179,201,242,61,192,175,238,63,172,184,8,233,63,180,194,233,248,75,27,237]},"announce":[],"urlList":[]}}